<svg width="98" height="81" viewBox="0 0 98 81" fill="none" xmlns="http://www.w3.org/2000/svg">
<path d="M74.7284 30.3741H51.4534V39.2343C51.4534 45.5155 46.5075 50.6259 40.4284 50.6259C34.3494 50.6259 29.4034 45.5155 29.4034 39.2343V19.9951L19.4656 26.1656C16.5103 27.9851 14.7035 31.2918 14.7035 34.8358V42.3195L2.45349 49.6291C0.11068 51.0214 -0.700881 54.1224 0.661929 56.5431L12.9119 78.472C14.2594 80.8927 17.2607 81.7154 19.6035 80.3231L35.4366 70.8776H56.3534C61.7587 70.8776 66.1534 66.3368 66.1534 60.7517H68.6034C71.3137 60.7517 73.5034 58.4892 73.5034 55.6888V45.5629H74.7284C76.7649 45.5629 78.4034 43.87 78.4034 41.7657V34.1713C78.4034 32.0671 76.7649 30.3741 74.7284 30.3741ZM97.3449 24.4568L85.0949 2.52804C83.7474 0.107329 80.7462 -0.715397 78.4034 0.676908L62.5703 10.1224H46.9209C45.0834 10.1224 43.2919 10.6604 41.73 11.6571L36.6003 14.9639C35.1609 15.8815 34.3034 17.5111 34.3034 19.2515V39.2343C34.3034 42.7309 37.0444 45.5629 40.4284 45.5629C43.8125 45.5629 46.5534 42.7309 46.5534 39.2343V25.3112H74.7284C79.4599 25.3112 83.3033 29.2824 83.3033 34.1713V38.6805L95.5533 31.3709C97.8961 29.9628 98.6924 26.8776 97.3449 24.4568Z" fill="black"/>
</svg>
