<svg width="593" height="464" viewBox="0 0 593 464" fill="none" xmlns="http://www.w3.org/2000/svg">
<path d="M452.183 173.995H311.346V224.749C311.346 260.731 281.418 290.005 244.633 290.005C207.849 290.005 177.921 260.731 177.921 224.749V114.54L117.787 149.887C99.9044 160.31 88.971 179.252 88.971 199.554V242.423L14.8461 284.295C0.669725 292.271 -4.24105 310.035 4.00534 323.901L78.1302 449.518C86.2839 463.385 104.445 468.098 118.621 460.122L214.427 406.015H340.996C373.703 406.015 400.295 380.003 400.295 348.01H415.12C431.521 348.01 444.77 335.049 444.77 319.007V261.002H452.183C464.506 261.002 474.42 251.305 474.42 239.251V195.747C474.42 183.693 464.506 173.995 452.183 173.995ZM589.036 140.098L514.911 14.4816C506.757 0.614822 488.597 -4.09808 474.42 3.8776L378.614 57.9853H283.919C272.801 57.9853 261.96 61.0668 252.509 66.7767L221.469 85.7189C212.759 90.9756 207.571 100.311 207.571 110.28V224.749C207.571 244.779 224.156 261.002 244.633 261.002C265.11 261.002 281.696 244.779 281.696 224.749V144.993H452.183C480.814 144.993 504.07 167.741 504.07 195.747V221.577L578.195 179.705C592.371 171.639 597.19 153.965 589.036 140.098Z" fill="#192E3D" fill-opacity="0.12"/>
</svg>
