<svg width="34" height="34" viewBox="0 0 34 34" fill="none" xmlns="http://www.w3.org/2000/svg">
<path d="M23.0712 10.4194C22.077 4.29798 19.7322 0 17.0034 0C14.2747 0 11.9298 4.29798 10.9357 10.4194H23.0712ZM10.4215 17C10.4215 18.5218 10.5037 19.9819 10.6477 21.3871H23.3523C23.4963 19.9819 23.5785 18.5218 23.5785 17C23.5785 15.4782 23.4963 14.0181 23.3523 12.6129H10.6477C10.5037 14.0181 10.4215 15.4782 10.4215 17ZM32.6836 10.4194C30.7227 5.76492 26.753 2.16613 21.8508 0.712903C23.5237 3.02984 24.6755 6.51895 25.2789 10.4194H32.6836ZM12.1492 0.712903C7.25388 2.16613 3.27727 5.76492 1.32325 10.4194H8.72797C9.32446 6.51895 10.4763 3.02984 12.1492 0.712903ZM33.4172 12.6129H25.5531C25.6971 14.0524 25.7794 15.5262 25.7794 17C25.7794 18.4738 25.6971 19.9476 25.5531 21.3871H33.4104C33.7875 19.9819 34 18.5218 34 17C34 15.4782 33.7875 14.0181 33.4172 12.6129ZM8.22746 17C8.22746 15.5262 8.30974 14.0524 8.45372 12.6129H0.589635C0.219399 14.0181 0 15.4782 0 17C0 18.5218 0.219399 19.9819 0.589635 21.3871H8.44686C8.30974 19.9476 8.22746 18.4738 8.22746 17ZM10.9357 23.5806C11.9298 29.702 14.2747 34 17.0034 34C19.7322 34 22.077 29.702 23.0712 23.5806H10.9357ZM21.8576 33.2871C26.753 31.8339 30.7296 28.2351 32.6905 23.5806H25.2857C24.6824 27.4811 23.5305 30.9702 21.8576 33.2871ZM1.32325 23.5806C3.28413 28.2351 7.25388 31.8339 12.1561 33.2871C10.4832 30.9702 9.33132 27.4811 8.72797 23.5806H1.32325Z" fill="black"/>
</svg>
